<?xml version="1.0" standalone="no"?>
<!DOCTYPE svg PUBLIC "-//W3C//DTD SVG 20010904//EN"
 "http://www.w3.org/TR/2001/REC-SVG-20010904/DTD/svg10.dtd">
<svg version="1.0" xmlns="http://www.w3.org/2000/svg"
 width="401.292256pt" height="332.036591pt" viewBox="0 0 401.292256 332.036591"
 preserveAspectRatio="xMidYMid meet">
<metadata>
Created by potrace 1.12, written by Peter Selinger 2001-2015
</metadata>
<g transform="translate(-311.163385,680.634606) scale(0.100000,-0.100000)"
fill="#000000" stroke="none">
<path d="M4213 6796 c-98 -32 -187 -115 -242 -223 -37 -74 -92 -100 -296 -144
-336 -72 -315 -65 -385 -119 -76 -60 -108 -96 -145 -170 -35 -69 -43 -164 -22
-265 44 -211 124 -539 342 -1415 56 -228 115 -467 129 -531 32 -140 70 -223
131 -288 107 -114 205 -122 530 -41 116 28 260 67 320 85 151 47 293 75 379
75 107 -1 296 -42 494 -109 97 -32 204 -64 237 -71 33 -6 121 -30 195 -52 109
-33 151 -41 220 -42 76 -1 92 2 153 31 127 60 175 116 212 248 26 94 134 439
295 945 349 1098 346 1088 360 1176 13 79 -3 176 -38 233 -34 56 -136 126
-212 146 -30 8 -129 40 -220 70 -91 30 -194 58 -228 61 -34 4 -66 12 -71 18
-5 6 -21 41 -36 78 -19 47 -40 80 -73 111 -116 108 -185 126 -527 138 -137 5
-365 13 -505 18 -140 5 -340 17 -445 26 -286 24 -501 28 -552 11z m382 -166
c44 -5 127 -9 185 -9 57 -1 165 -5 240 -11 188 -13 495 -30 750 -40 118 -5
232 -14 253 -21 83 -27 146 -113 162 -219 3 -25 -3 -178 -15 -340 -27 -394
-45 -673 -70 -1105 -20 -352 -32 -532 -49 -746 -10 -122 -29 -169 -91 -221
-68 -59 -126 -67 -345 -48 -60 5 -204 14 -320 20 -115 6 -280 17 -365 25 -85
7 -247 19 -360 25 -464 25 -551 48 -613 165 -20 36 -22 56 -22 190 0 83 8 251
18 375 10 124 29 376 43 560 13 184 29 378 34 430 5 52 17 201 25 330 19 295
40 461 65 517 23 53 60 89 125 120 47 23 58 24 160 19 61 -4 146 -10 190 -16z
m-672 -329 c2 -10 -4 -117 -14 -237 -9 -121 -29 -381 -43 -579 -14 -198 -38
-533 -53 -745 -16 -212 -28 -439 -28 -505 1 -153 21 -212 104 -296 65 -66 119
-89 263 -115 144 -25 144 -26 53 -62 -110 -42 -228 -59 -289 -42 -50 14 -119
67 -140 109 -8 14 -19 53 -26 86 -6 33 -50 220 -97 415 -46 195 -104 438 -129
540 -24 102 -81 345 -128 540 -134 561 -138 580 -116 645 19 56 83 121 138
139 51 17 470 124 488 125 7 1 14 -8 17 -18z m2637 -110 c188 -44 322 -87 348
-111 41 -39 56 -81 60 -175 3 -78 -1 -103 -26 -185 -111 -358 -173 -557 -323
-1030 -306 -964 -310 -975 -401 -1019 -60 -29 -171 -29 -259 0 -80 26 -90 35
-47 44 50 11 139 59 176 96 65 64 96 154 107 314 3 55 13 183 21 285 7 102 23
320 34 485 11 165 22 334 25 375 3 41 14 212 25 380 36 535 35 529 62 557 14
15 30 23 43 20 11 -2 81 -19 155 -36z"/>
<path d="M4467 5824 c-9 -10 -9 -962 1 -967 4 -3 56 -10 116 -16 60 -7 145
-24 190 -38 77 -24 222 -90 215 -98 -2 -2 -50 3 -106 10 -57 7 -172 18 -255
24 -84 6 -172 14 -195 17 l-43 5 -2 447 -3 447 -32 3 c-25 3 -35 -2 -48 -22
-15 -23 -17 -69 -13 -469 3 -399 5 -446 20 -469 20 -30 11 -29 318 -53 305
-24 306 -24 347 -56 75 -60 180 -60 250 1 18 17 39 30 46 30 7 0 142 11 302
25 222 19 293 29 305 40 13 14 15 78 18 473 3 499 4 484 -55 501 -30 9 -34 7
-39 -13 -3 -13 -4 -218 -2 -455 l3 -431 -30 -5 c-16 -2 -100 -9 -185 -15 -85
-7 -203 -17 -262 -24 -60 -7 -108 -9 -108 -6 0 13 131 70 217 95 48 14 134 31
191 37 l102 11 0 484 0 483 -77 0 c-142 0 -303 -37 -400 -92 -54 -30 -143
-120 -143 -144 0 -24 -17 -15 -30 16 -20 49 -99 113 -180 147 -112 47 -410
100 -433 77z"/>
</g>
</svg>
